<?xml version="1.0" standalone="no"?><!DOCTYPE svg PUBLIC "-//W3C//DTD SVG 1.1//EN" "http://www.w3.org/Graphics/SVG/1.1/DTD/svg11.dtd"><svg t="1548193979123" class="icon" style="" viewBox="0 0 1024 1024" version="1.1" xmlns="http://www.w3.org/2000/svg" p-id="8824" xmlns:xlink="http://www.w3.org/1999/xlink" width="200" height="200"><defs><style type="text/css"></style></defs><path d="M892.29597356 221.65563193c0 13.12689599-10.64160237 23.76849835-23.76849835 23.76849835H155.47252479c-13.12689599 0-23.76849835-10.64160237-23.76849835-23.76849835 0-13.12689599 10.64160237-23.76849835 23.76849835-23.76849836h713.05495042c13.12763874 0 23.76849835 10.64234514 23.76849835 23.76849836zM892.29597356 506.87761209c0 13.12689599-10.64160237 23.76849835-23.76849835 23.76849834H155.47252479c-13.12689599 0-23.76849835-10.64160237-23.76849835-23.76849834 0-13.12689599 10.64160237-23.76849835 23.76849835-23.76849834h713.05495042c13.12763874 0 23.76849835 10.64234514 23.76849835 23.76849834zM892.29597356 792.09959227c0 13.12689599-10.64160237 23.76849835-23.76849835 23.76849834H155.47252479c-13.12689599 0-23.76849835-10.64160237-23.76849835-23.76849834 0-13.12689599 10.64160237-23.76849835 23.76849835-23.76849837h713.05495042c13.12763874 0 23.76849835 10.64234514 23.76849835 23.76849837z" p-id="8825"></path></svg>